<svg xmlns="http://www.w3.org/2000/svg" fill="none" viewBox="0 0 118 85">
  <path d="M40.903 19.892c.191 0 .35.049.477.146a.915.915 0 01.295.393l-.283.146a.598.598 0 00-.183-.296.456.456 0 00-.314-.105.527.527 0 00-.44.206c-.104.136-.157.323-.157.564 0 .24.053.43.157.567a.53.53 0 00.44.203.529.529 0 00.351-.11.525.525 0 00.172-.307l.276.105a.902.902 0 01-.295.438.77.77 0 01-.496.158.875.875 0 01-.466-.126.851.851 0 01-.321-.36 1.292 1.292 0 01-.116-.568c0-.219.039-.407.116-.564a.847.847 0 01.32-.364.875.875 0 01.467-.126zm2.013 0c.177 0 .332.042.466.126a.848.848 0 01.321.364c.077.157.116.345.116.564 0 .219-.039.408-.116.567a.852.852 0 01-.32.361.863.863 0 01-.467.126.875.875 0 01-.466-.126.852.852 0 01-.321-.36 1.292 1.292 0 01-.116-.568c0-.219.039-.407.116-.564a.848.848 0 01.32-.364.875.875 0 01.467-.126zm0 .28a.53.53 0 00-.444.206c-.107.138-.16.327-.16.568 0 .24.053.43.16.567a.53.53 0 00.444.207.53.53 0 00.444-.206c.107-.138.16-.328.16-.568 0-.24-.053-.43-.16-.568a.53.53 0 00-.444-.206zM44.59 19v2.445c0 .102.017.174.052.215.035.037.09.056.168.056a.52.52 0 00.123-.012c.032-.008.076-.023.13-.044l-.048.283a.651.651 0 01-.276.057c-.299 0-.448-.181-.448-.543V19h.299zm1.554.892c.177 0 .332.042.467.126a.848.848 0 01.32.364c.078.157.116.345.116.564 0 .219-.038.408-.116.567a.852.852 0 01-.32.361.862.862 0 01-.467.126.875.875 0 01-.466-.126.852.852 0 01-.321-.36 1.292 1.292 0 01-.116-.568c0-.219.039-.407.116-.564a.848.848 0 01.32-.364.875.875 0 01.467-.126zm0 .28a.53.53 0 00-.444.206c-.107.138-.16.327-.16.568 0 .24.053.43.16.567a.53.53 0 00.444.207.53.53 0 00.444-.206c.107-.138.16-.328.16-.568 0-.24-.053-.43-.16-.568a.53.53 0 00-.444-.206zm1.39 1.788v-2.028h.243l.04.333c.105-.249.304-.373.598-.373.032 0 .067.003.104.008.04.005.074.016.101.032l-.052.296a.441.441 0 00-.09-.024.877.877 0 00-.138-.008.45.45 0 00-.235.073.564.564 0 00-.194.223.785.785 0 00-.078.373v1.095h-.299zm2.396-1.229v.337h-1.232v-.337h1.231zm1.624-.799v.28h-.68V21.4c0 .1.027.174.08.223a.278.278 0 00.2.073.401.401 0 00.187-.04.51.51 0 00.142-.11l.105.272a.621.621 0 01-.206.133.69.69 0 01-.268.049.666.666 0 01-.265-.053.457.457 0 01-.198-.174.65.65 0 01-.075-.316v-1.245h-.373v-.28h.373v-.486l.299-.09v.576h.679zM52.703 22a.901.901 0 01-.474-.126.852.852 0 01-.32-.36 1.292 1.292 0 01-.117-.568c0-.219.039-.407.116-.564a.856.856 0 01.317-.364.85.85 0 01.46-.126c.173 0 .321.04.443.122a.774.774 0 01.284.332c.064.138.097.293.097.466a1.914 1.914 0 01-.015.227h-1.407c.015.214.076.38.183.499a.544.544 0 00.425.178.586.586 0 00.332-.085.62.62 0 00.21-.231l.234.15a.805.805 0 01-.302.328.86.86 0 01-.466.122zm-.026-1.824a.524.524 0 00-.388.154c-.1.1-.163.24-.19.421h1.111c-.007-.183-.06-.325-.157-.425a.502.502 0 00-.376-.15zm1.435-.244l.492.75.485-.75h.35l-.675.994.687 1.034h-.366l-.515-.783-.53.782h-.346l.716-1.021-.671-1.006h.373zm2.854 0v.28h-.679V21.4c0 .1.026.174.079.223.052.049.12.073.201.073a.402.402 0 00.187-.04.51.51 0 00.142-.11l.104.272a.621.621 0 01-.205.133.689.689 0 01-.269.049.667.667 0 01-.265-.053.457.457 0 01-.198-.174.65.65 0 01-.074-.316v-1.245h-.373v-.28h.373v-.486l.298-.09v.576h.68zm34.958-.001a.77.77 0 01.49.153.94.94 0 01.3.41l-.29.153a.625.625 0 00-.187-.31.46.46 0 00-.32-.11.535.535 0 00-.451.216c-.107.141-.16.338-.16.589 0 .25.053.448.16.592a.54.54 0 00.45.212.54.54 0 00.36-.114.55.55 0 00.175-.322l.283.11a.943.943 0 01-.302.457.777.777 0 01-.508.165.883.883 0 01-.477-.13.883.883 0 01-.329-.378 1.372 1.372 0 01-.118-.592c0-.229.04-.425.118-.589a.879.879 0 01.329-.38.877.877 0 01.477-.132zm2.061 0c.18 0 .34.044.477.131.14.088.25.215.329.381.079.164.118.36.118.589 0 .228-.04.426-.118.592a.883.883 0 01-.329.377.87.87 0 01-.477.131.883.883 0 01-.477-.13.884.884 0 01-.329-.378 1.37 1.37 0 01-.118-.592c0-.229.04-.425.118-.589a.88.88 0 01.329-.38.877.877 0 01.477-.132zm0 .292a.539.539 0 00-.454.216c-.11.144-.165.342-.165.593 0 .25.055.448.165.592.109.144.26.216.454.216a.539.539 0 00.454-.216c.11-.144.165-.341.165-.592 0-.251-.055-.449-.165-.593a.539.539 0 00-.454-.216zM95.698 19v2.552c0 .108.018.182.054.225.035.04.093.059.172.059a.524.524 0 00.126-.013c.033-.008.077-.024.133-.046l-.05.296a.656.656 0 01-.282.06c-.305 0-.458-.19-.458-.568V19h.305zm1.592.931c.18 0 .34.044.477.131a.88.88 0 01.329.381c.079.164.118.36.118.589 0 .228-.04.426-.118.592a.884.884 0 01-.329.377.87.87 0 01-.477.131.883.883 0 01-.478-.13.883.883 0 01-.328-.378 1.372 1.372 0 01-.118-.592c0-.229.039-.425.118-.589a.879.879 0 01.328-.38.88.88 0 01.478-.132zm0 .292a.539.539 0 00-.455.216c-.11.144-.164.342-.164.593 0 .25.055.448.164.592a.54.54 0 00.455.216.539.539 0 00.454-.216c.11-.144.165-.341.165-.592 0-.251-.055-.449-.165-.593a.539.539 0 00-.454-.216zm1.423 1.867v-2.116h.248l.042.347c.107-.26.31-.39.611-.39.033 0 .069.003.107.009a.26.26 0 01.103.034l-.053.308a.454.454 0 00-.092-.025.903.903 0 00-.141-.008.453.453 0 00-.24.076.585.585 0 00-.2.233.832.832 0 00-.08.39v1.142h-.305zm2.452-1.283v.352h-1.26v-.352h1.26zm1.663-.833v.292h-.695v1.24c0 .104.026.182.08.233a.29.29 0 00.206.076.403.403 0 00.191-.043.527.527 0 00.145-.114l.107.284a.632.632 0 01-.21.14.695.695 0 01-.275.05.668.668 0 01-.271-.055.472.472 0 01-.203-.182.697.697 0 01-.076-.33v-1.3h-.382v-.291h.382v-.508l.306-.094v.602h.695zm1.176 2.158a.907.907 0 01-.485-.13.886.886 0 01-.329-.378 1.37 1.37 0 01-.118-.592c0-.229.039-.425.118-.589a.887.887 0 01.325-.38.856.856 0 01.47-.132.79.79 0 01.454.127c.128.085.224.2.29.347.067.144.1.306.1.487a1.761 1.761 0 01-.015.237h-1.44c.015.223.077.397.187.52a.55.55 0 00.435.187.59.59 0 00.34-.089.64.64 0 00.214-.241l.241.156a.84.84 0 01-.787.47zm-.027-1.905a.53.53 0 00-.397.161.773.773 0 00-.195.44h1.138c-.007-.191-.061-.34-.16-.444a.508.508 0 00-.386-.157zm1.469-.253l.504.783.497-.784h.359l-.692 1.038.703 1.079h-.374l-.527-.817-.543.817h-.355l.734-1.067-.688-1.05h.382zm2.922 0v.292h-.695v1.24c0 .104.027.182.081.233a.29.29 0 00.206.076.405.405 0 00.191-.043.527.527 0 00.145-.114l.107.284a.642.642 0 01-.21.14.695.695 0 01-.275.05.668.668 0 01-.271-.055.472.472 0 01-.203-.182.686.686 0 01-.076-.33v-1.3h-.382v-.291h.382v-.508l.305-.094v.602h.695zm1.583.833v.352h-1.261v-.352h1.261zm.911-1.807v2.552c0 .108.018.182.054.225.036.04.093.059.172.059a.523.523 0 00.126-.013 1.14 1.14 0 00.133-.046l-.049.296a.656.656 0 01-.283.06c-.305 0-.458-.19-.458-.568V19h.305zm.954.567a.222.222 0 01-.168-.067.277.277 0 01-.061-.187.26.26 0 01.061-.182.215.215 0 01.168-.072c.069 0 .123.024.164.072a.253.253 0 01.065.182.269.269 0 01-.065.187.21.21 0 01-.164.067zm.153.407v2.116h-.306v-2.116h.306zm1.66 1.845c.18 0 .322.047.424.14.101.09.152.211.152.364a.547.547 0 01-.126.36.762.762 0 01-.332.232 1.215 1.215 0 01-.466.085c-.3 0-.526-.056-.676-.17-.148-.112-.221-.248-.221-.406 0-.096.024-.183.072-.262a.408.408 0 01.241-.17.404.404 0 01-.149-.126.395.395 0 01-.057-.225c0-.087.022-.166.068-.237a.44.44 0 01.207-.17.614.614 0 01-.222-.245.753.753 0 01-.076-.342c0-.141.033-.266.099-.373a.702.702 0 01.279-.25.852.852 0 01.405-.093c.16 0 .304.035.431.106a.494.494 0 01.508-.453h.019l.069.3h-.027a.46.46 0 00-.275.073c-.066.048-.103.122-.11.224a.69.69 0 01.168.466.71.71 0 01-.1.372.693.693 0 01-.279.254.883.883 0 01-.404.089c-.095 0-.182-.01-.264-.03a.322.322 0 00-.164.106.246.246 0 00-.05.148c0 .155.099.233.298.233h.558zm-.378-1.613a.473.473 0 00-.333.123.403.403 0 00-.133.318c0 .13.044.235.133.317.089.082.2.123.333.123a.472.472 0 00.332-.123.412.412 0 00.134-.317.404.404 0 00-.134-.318.473.473 0 00-.332-.123zm.026 2.51c.222 0 .385-.036.489-.11.105-.07.157-.152.157-.245a.222.222 0 00-.084-.182c-.054-.045-.152-.068-.294-.068h-.588a.32.32 0 00-.207.068.243.243 0 00-.084.195c0 .104.054.187.161.25a.926.926 0 00.45.092zm1.281-.626V19h.305v1.291a.615.615 0 01.264-.275.77.77 0 01.359-.085.78.78 0 01.374.09.624.624 0 01.267.261.89.89 0 01.104.453v1.355h-.306v-1.236c0-.234-.046-.396-.138-.487a.44.44 0 00-.332-.14.57.57 0 00-.504.309.898.898 0 00-.088.432v1.122h-.305zm3.408-2.116v.292h-.695v1.24c0 .104.026.182.08.233a.29.29 0 00.206.076.405.405 0 00.191-.043.527.527 0 00.145-.114l.107.284a.642.642 0 01-.21.14.695.695 0 01-.275.05.668.668 0 01-.271-.055.472.472 0 01-.203-.182.697.697 0 01-.076-.33v-1.3h-.382v-.291h.382v-.508l.306-.094v.602h.695zm-94.04 30.918a.79.79 0 01.49.146c.13.094.231.226.302.393l-.29.146a.596.596 0 00-.188-.296.475.475 0 00-.321-.105.546.546 0 00-.452.206c-.107.136-.16.323-.16.564 0 .24.053.43.16.568a.55.55 0 00.452.202c.15 0 .27-.036.36-.11a.522.522 0 00.175-.307l.284.105a.9.9 0 01-.303.438.803.803 0 01-.509.158.915.915 0 01-.478-.126.859.859 0 01-.33-.36 1.264 1.264 0 01-.118-.568c0-.219.04-.407.119-.564a.855.855 0 01.329-.364c.14-.084.3-.126.478-.126zm2.065 0c.181 0 .34.042.479.126.14.083.25.205.329.364.079.157.118.345.118.564 0 .219-.04.408-.118.568a.86.86 0 01-.33.36.902.902 0 01-.478.126.915.915 0 01-.478-.126.86.86 0 01-.33-.36 1.264 1.264 0 01-.118-.568c0-.219.04-.407.119-.564a.855.855 0 01.807-.49zm0 .28a.55.55 0 00-.455.206c-.11.138-.165.327-.165.568 0 .24.055.43.165.568a.55.55 0 00.455.206.55.55 0 00.456-.206c.11-.138.164-.328.164-.568 0-.24-.055-.43-.164-.568a.55.55 0 00-.456-.206zM27.708 50v2.445c0 .102.018.174.054.215.035.037.093.056.172.056a.546.546 0 00.126-.012c.033-.008.078-.023.134-.044l-.05.283a.682.682 0 01-.283.057c-.306 0-.46-.181-.46-.543V50h.307zm1.595.892a.86.86 0 01.808.49c.078.157.118.345.118.564 0 .219-.04.408-.119.568a.86.86 0 01-.329.36.902.902 0 01-.478.126.915.915 0 01-.479-.126.859.859 0 01-.329-.36 1.264 1.264 0 01-.118-.568c0-.219.04-.407.118-.564a.855.855 0 01.33-.364c.14-.084.3-.126.478-.126zm0 .28a.55.55 0 00-.456.206c-.11.138-.164.327-.164.568 0 .24.055.43.164.568a.55.55 0 00.456.206.55.55 0 00.455-.206c.11-.138.165-.328.165-.568 0-.24-.055-.43-.165-.568a.55.55 0 00-.455-.206zm1.426 1.788v-2.028h.249l.042.333c.107-.249.31-.373.612-.373a.77.77 0 01.107.008.283.283 0 01.104.032l-.054.296a.462.462 0 00-.092-.024.924.924 0 00-.142-.008.47.47 0 00-.24.073.569.569 0 00-.2.223.769.769 0 00-.08.373v1.094h-.306zm2.457-1.229v.337h-1.263v-.337h1.263zm1.414-.839a.79.79 0 01.49.146c.13.094.232.226.303.393l-.29.146a.596.596 0 00-.188-.296.475.475 0 00-.322-.105.546.546 0 00-.451.206c-.108.136-.161.323-.161.564 0 .24.053.43.16.568a.55.55 0 00.452.202c.15 0 .27-.036.36-.11a.523.523 0 00.176-.307l.283.105a.902.902 0 01-.302.438.803.803 0 01-.51.158.915.915 0 01-.478-.126.86.86 0 01-.329-.36 1.264 1.264 0 01-.118-.568c0-.219.04-.407.118-.564a.855.855 0 01.808-.49zm2.066 0a.86.86 0 01.808.49c.079.157.118.345.118.564 0 .219-.04.408-.119.568a.86.86 0 01-.329.36.902.902 0 01-.478.126.915.915 0 01-.478-.126.859.859 0 01-.33-.36 1.264 1.264 0 01-.118-.568c0-.219.04-.407.118-.564a.855.855 0 01.33-.364c.14-.084.3-.126.478-.126zm0 .28a.55.55 0 00-.456.206c-.11.138-.164.327-.164.568 0 .24.055.43.164.568a.55.55 0 00.456.206.55.55 0 00.455-.206c.11-.138.165-.328.165-.568 0-.24-.055-.43-.165-.568a.55.55 0 00-.455-.206zm1.426 1.788v-2.028h.268l.019.317a.589.589 0 01.272-.272.827.827 0 01.37-.085.82.82 0 01.376.085.617.617 0 01.268.251.825.825 0 01.103.434v1.297h-.306v-1.183c0-.225-.046-.38-.138-.467a.452.452 0 00-.333-.133.61.61 0 00-.275.069.56.56 0 00-.23.223.832.832 0 00-.088.413v1.078h-.306zm3.415-2.028v.28h-.697V52.4c0 .1.027.174.08.223a.296.296 0 00.207.073.42.42 0 00.192-.04.522.522 0 00.145-.11l.107.272a.64.64 0 01-.21.133.723.723 0 01-.276.049.7.7 0 01-.271-.053.465.465 0 01-.203-.174.637.637 0 01-.077-.316v-1.245h-.383v-.28h.383v-.486l.306-.09v.576h.697zm.379 2.028v-2.028h.248l.042.333c.108-.249.312-.373.613-.373a.77.77 0 01.107.008c.04.005.075.016.103.032l-.053.296a.462.462 0 00-.092-.024.924.924 0 00-.142-.008.47.47 0 00-.24.073.569.569 0 00-.2.223.769.769 0 00-.08.373v1.094h-.306zm2.551-1.31a.493.493 0 00-.115-.349.418.418 0 00-.326-.125.587.587 0 00-.336.093.52.52 0 00-.203.292l-.249-.162a.697.697 0 01.283-.365.885.885 0 01.513-.142c.138 0 .263.026.375.077a.57.57 0 01.264.227c.066.1.1.23.1.39v.98c0 .097.048.146.145.146a.5.5 0 00.142-.02l-.016.255a.425.425 0 01-.199.04.414.414 0 01-.244-.072.35.35 0 01-.13-.223.607.607 0 01-.272.235.867.867 0 01-.341.073.806.806 0 01-.314-.06.538.538 0 01-.233-.183.541.541 0 01-.084-.308c0-.152.047-.276.141-.373a.754.754 0 01.402-.203l.697-.146v-.077zm-.927.782c0 .084.031.153.092.207a.417.417 0 00.268.077.71.71 0 00.276-.053.507.507 0 00.21-.166.487.487 0 00.08-.288v-.214l-.554.121a.686.686 0 00-.28.114.245.245 0 00-.092.202zM46.1 53c-.187 0-.36-.042-.518-.126a.873.873 0 01-.36-.356l.26-.2a.67.67 0 00.246.293c.11.07.241.105.394.105a.543.543 0 00.318-.08.261.261 0 00.06-.374c-.032-.048-.097-.084-.194-.105l-.46-.102c-.186-.04-.32-.108-.401-.202a.531.531 0 01-.119-.353c0-.11.03-.212.088-.304a.64.64 0 01.256-.219.864.864 0 01.395-.085c.188 0 .348.04.478.117a.72.72 0 01.29.333l-.255.178a.467.467 0 00-.211-.26.591.591 0 00-.302-.084.513.513 0 00-.322.089.272.272 0 00-.057.39c.038.048.11.083.214.105l.479.105c.178.038.303.1.375.186a.48.48 0 01.107.317.57.57 0 01-.21.462c-.141.113-.325.17-.552.17zm2.4-2.068v.28h-.697V52.4c0 .1.027.174.08.223a.295.295 0 00.207.073.42.42 0 00.192-.04.522.522 0 00.145-.11l.108.272a.64.64 0 01-.211.133.723.723 0 01-.276.049.7.7 0 01-.271-.053.464.464 0 01-.203-.174.636.636 0 01-.077-.316v-1.245h-.382v-.28h.382v-.486l.306-.09v.576h.697zm1.585.799v.337h-1.263v-.337h1.263zM51.646 53a.712.712 0 01-.65-.397l-.02.356h-.268V50h.306v1.249a.707.707 0 01.257-.256.72.72 0 01.379-.101.8.8 0 01.436.126.887.887 0 01.318.36c.079.157.118.346.118.568 0 .219-.04.408-.122.568a.887.887 0 01-.318.36.8.8 0 01-.436.126zm-.03-.284c.188 0 .335-.07.44-.21.107-.141.16-.328.16-.56 0-.232-.052-.419-.157-.56a.517.517 0 00-.44-.21.53.53 0 00-.436.215c-.112.143-.169.33-.169.563 0 .233.055.418.165.556a.537.537 0 00.436.206zm1.343.244v-.264c.252-.197.463-.37.631-.519a4.05 4.05 0 00.41-.405 1.31 1.31 0 00.218-.345.936.936 0 00.065-.345.522.522 0 00-.146-.385.511.511 0 00-.39-.15.523.523 0 00-.417.183.813.813 0 00-.184.478l-.268-.17a.982.982 0 01.272-.572c.15-.148.353-.223.608-.223.174 0 .323.037.448.11.128.07.226.169.295.296a.88.88 0 01.103.433c0 .168-.038.333-.115.495-.076.16-.203.327-.378.503-.177.175-.415.37-.716.584v.004a1.26 1.26 0 01.115-.005l.149-.003c.05-.003.09-.005.115-.005h.884v.304h-1.7zm3.165.04a.712.712 0 01-.651-.397l-.02.356h-.267V50h.306v1.249a.721.721 0 01.635-.357.8.8 0 01.437.126.887.887 0 01.317.36c.08.157.119.346.119.568 0 .219-.04.408-.123.568a.886.886 0 01-.317.36.801.801 0 01-.436.126zm-.031-.284c.189 0 .335-.07.44-.21.107-.141.16-.328.16-.56 0-.232-.051-.419-.156-.56a.517.517 0 00-.44-.21.53.53 0 00-.437.215c-.112.143-.168.33-.168.563 0 .233.055.418.165.556a.537.537 0 00.436.206zm28.811-1.824c.192 0 .352.048.479.146a.915.915 0 01.295.393l-.284.146a.597.597 0 00-.183-.296.457.457 0 00-.314-.105.528.528 0 00-.441.206c-.105.136-.157.323-.157.564 0 .24.052.43.157.568a.532.532 0 00.441.202.53.53 0 00.351-.11.525.525 0 00.172-.307l.277.105a.902.902 0 01-.295.438.772.772 0 01-.498.158.878.878 0 01-.467-.126.852.852 0 01-.321-.36 1.289 1.289 0 01-.116-.568c0-.219.039-.407.116-.564a.848.848 0 01.321-.364.878.878 0 01.468-.126zm2.017 0c.177 0 .333.042.467.126a.848.848 0 01.322.364c.077.157.116.345.116.564 0 .219-.039.408-.116.568a.852.852 0 01-.322.36.865.865 0 01-.467.126.877.877 0 01-.467-.126.852.852 0 01-.321-.36 1.29 1.29 0 01-.116-.568c0-.219.038-.407.116-.564a.848.848 0 01.321-.364.877.877 0 01.467-.126zm0 .28a.532.532 0 00-.445.206c-.107.138-.16.327-.16.568 0 .24.053.43.16.568a.532.532 0 00.445.206c.19 0 .338-.069.445-.206.107-.138.16-.328.16-.568 0-.24-.053-.43-.16-.568a.532.532 0 00-.445-.206zM88.598 50v2.445c0 .102.017.174.052.215.035.037.091.056.169.056.05 0 .09-.004.123-.012.032-.008.076-.023.13-.044l-.048.283a.653.653 0 01-.276.057c-.3 0-.449-.181-.449-.543V50h.3zm1.558.892c.176 0 .332.042.467.126a.848.848 0 01.321.364c.077.157.116.345.116.564 0 .219-.039.408-.116.568a.852.852 0 01-.321.36.865.865 0 01-.468.126.877.877 0 01-.467-.126.852.852 0 01-.321-.36 1.29 1.29 0 01-.116-.568c0-.219.039-.407.116-.564a.848.848 0 01.321-.364.877.877 0 01.468-.126zm0 .28a.532.532 0 00-.445.206c-.108.138-.161.327-.161.568 0 .24.053.43.16.568a.532.532 0 00.446.206.532.532 0 00.444-.206c.107-.138.161-.328.161-.568 0-.24-.054-.43-.16-.568a.532.532 0 00-.445-.206zm1.392 1.788v-2.028h.243l.041.333c.105-.249.304-.373.598-.373a.79.79 0 01.105.008.25.25 0 01.1.032l-.051.296a.442.442 0 00-.09-.024.882.882 0 00-.138-.008.45.45 0 00-.236.073.564.564 0 00-.194.223.784.784 0 00-.079.373v1.094h-.299zm2.4-1.229v.337h-1.234v-.337h1.234zm1.382-.839c.192 0 .351.048.478.146a.915.915 0 01.295.393l-.284.146a.597.597 0 00-.183-.296.457.457 0 00-.314-.105.528.528 0 00-.44.206c-.105.136-.158.323-.158.564 0 .24.053.43.157.568a.532.532 0 00.441.202.53.53 0 00.352-.11.525.525 0 00.172-.307l.276.105a.902.902 0 01-.295.438.772.772 0 01-.497.158.877.877 0 01-.467-.126.852.852 0 01-.322-.36 1.29 1.29 0 01-.116-.568c0-.219.039-.407.116-.564a.848.848 0 01.322-.364.877.877 0 01.467-.126zm2.017 0c.177 0 .332.042.467.126a.848.848 0 01.321.364c.078.157.116.345.116.564 0 .219-.038.408-.116.568a.852.852 0 01-.321.36.865.865 0 01-.467.126.878.878 0 01-.468-.126.852.852 0 01-.321-.36 1.29 1.29 0 01-.116-.568c0-.219.039-.407.116-.564a.848.848 0 01.321-.364.878.878 0 01.468-.126zm0 .28a.532.532 0 00-.445.206c-.107.138-.16.327-.16.568 0 .24.053.43.16.568a.532.532 0 00.445.206.532.532 0 00.444-.206c.108-.138.161-.328.161-.568 0-.24-.053-.43-.16-.568a.532.532 0 00-.445-.206zm1.393 1.788v-2.028H99l.02.317a.582.582 0 01.265-.272.792.792 0 01.363-.085c.134 0 .256.028.366.085a.613.613 0 01.262.251c.067.114.1.258.1.434v1.297h-.299v-1.183c0-.225-.044-.38-.134-.467a.436.436 0 00-.325-.133c-.09 0-.18.023-.27.069a.554.554 0 00-.224.223.85.85 0 00-.086.413v1.078h-.299zm3.335-2.028v.28h-.681V52.4c0 .1.026.174.079.223a.283.283 0 00.202.073.399.399 0 00.186-.04.496.496 0 00.142-.11l.105.272a.625.625 0 01-.205.133.696.696 0 01-.27.049.669.669 0 01-.265-.053.459.459 0 01-.198-.174.657.657 0 01-.075-.316v-1.245h-.374v-.28h.374v-.486l.299-.09v.576h.681zm.369 2.028v-2.028h.243l.041.333c.105-.249.304-.373.598-.373a.79.79 0 01.105.008c.04.005.074.016.101.032l-.052.296a.464.464 0 00-.09-.024.88.88 0 00-.138-.008.451.451 0 00-.236.073.562.562 0 00-.194.223.787.787 0 00-.079.373v1.094h-.299zm2.492-1.31a.5.5 0 00-.112-.349.405.405 0 00-.318-.125.564.564 0 00-.329.093.517.517 0 00-.198.292l-.243-.162a.698.698 0 01.276-.365.852.852 0 01.501-.142c.135 0 .257.026.367.077a.56.56 0 01.257.227c.065.1.098.23.098.39v.98c0 .097.047.146.142.146a.478.478 0 00.138-.02l-.015.255a.408.408 0 01-.194.04.4.4 0 01-.24-.072.356.356 0 01-.127-.223.592.592 0 01-.265.235.83.83 0 01-.333.073.772.772 0 01-.306-.06.524.524 0 01-.228-.183.55.55 0 01-.082-.308.52.52 0 01.138-.373.73.73 0 01.392-.203l.681-.146v-.077zm-.905.782c0 .084.03.153.09.207a.398.398 0 00.261.077.683.683 0 00.27-.053.498.498 0 00.205-.166.497.497 0 00.079-.288v-.214l-.542.121a.664.664 0 00-.273.114.247.247 0 00-.09.202zm2.528.568c-.182 0-.35-.042-.504-.126a.869.869 0 01-.352-.356l.255-.2a.658.658 0 00.239.293c.107.07.235.105.385.105a.52.52 0 00.31-.08.262.262 0 00.06-.374c-.033-.048-.096-.084-.191-.105l-.448-.102c-.182-.04-.313-.108-.393-.202a.54.54 0 01-.116-.353.566.566 0 01.337-.523.825.825 0 01.385-.085c.184 0 .34.04.467.117.127.079.222.19.284.333l-.25.178a.466.466 0 00-.206-.26.567.567 0 00-.295-.084.492.492 0 00-.314.089.273.273 0 00-.112.223c0 .06.018.115.056.166.037.049.107.084.209.105l.467.106c.175.038.297.1.367.186a.491.491 0 01.104.317.575.575 0 01-.205.462c-.137.113-.317.17-.539.17zm2.345-2.068v.28h-.68V52.4c0 .1.026.174.078.223.053.049.12.073.202.073a.4.4 0 00.187-.04.51.51 0 00.142-.11l.105.272a.619.619 0 01-.206.133.69.69 0 01-.269.049.665.665 0 01-.265-.053.459.459 0 01-.198-.174.635.635 0 01-.075-.316v-1.245h-.374v-.28h.374v-.486l.299-.09v.576h.68zm1.548.799v.337h-1.233v-.337h1.233zM111.977 53a.686.686 0 01-.382-.11.706.706 0 01-.254-.287l-.018.356h-.262V50h.299v1.249a.7.7 0 01.25-.256.692.692 0 01.37-.101c.155 0 .297.042.426.126.13.083.233.204.311.36.077.157.116.346.116.568 0 .219-.04.408-.12.568a.882.882 0 01-.31.36.77.77 0 01-.426.126zm-.03-.284c.184 0 .327-.07.43-.21.104-.141.157-.328.157-.56 0-.232-.052-.419-.154-.56a.5.5 0 00-.43-.21.514.514 0 00-.426.215c-.109.143-.164.33-.164.563 0 .233.053.418.161.556a.518.518 0 00.426.206zm1.311.244v-.264c.247-.197.453-.37.617-.519.167-.149.3-.284.4-.405.1-.122.171-.237.213-.345a.944.944 0 00.064-.345.532.532 0 00-.142-.385.494.494 0 00-.382-.15.505.505 0 00-.407.183.822.822 0 00-.179.478l-.262-.17a.992.992 0 01.265-.572c.147-.148.345-.223.595-.223.169 0 .315.037.437.11.125.07.221.169.288.296a.901.901 0 01.101.433c0 .168-.038.333-.112.495-.075.16-.199.327-.37.503-.172.175-.405.37-.699.584v.004c.027-.003.064-.005.112-.005a2.69 2.69 0 01.146-.003 2.24 2.24 0 01.112-.005h.863v.304h-1.66zm2.95-2.068a.76.76 0 01.478.146.909.909 0 01.295.393l-.284.146a.6.6 0 00-.183-.296.457.457 0 00-.314-.105.528.528 0 00-.441.206c-.105.136-.157.323-.157.564 0 .24.052.43.157.568a.532.532 0 00.441.202.53.53 0 00.351-.11.52.52 0 00.172-.307l.277.105a.903.903 0 01-.295.438.772.772 0 01-.497.158.879.879 0 01-.468-.126.85.85 0 01-.321-.36 1.293 1.293 0 01-.116-.568c0-.219.039-.407.116-.564a.846.846 0 01.321-.364.879.879 0 01.468-.126zM2.238 1.804v.45h-.483l-.098.702h-.434l.098-.702H.83l-.095.702H.298l.094-.702H0v-.45h.457l.083-.608H.162v-.45H.6L.698.044h.438l-.098.702h.49l.095-.702h.437l-.094.702H2.4v.45h-.498l-.083.608h.419zm-1.344 0h.487l.083-.608H.977l-.083.608zM3.56 3c-.266 0-.488-.06-.664-.18a.972.972 0 01-.37-.54l.596-.3c.016.16.058.271.129.336a.41.41 0 00.283.097c.103 0 .185-.03.245-.092a.366.366 0 00.09-.26c0-.112-.028-.193-.086-.243a.364.364 0 00-.245-.075c-.06 0-.122.004-.185.013v-.494l.06.009h.072c.115 0 .2-.028.253-.084.052-.06.079-.15.079-.274 0-.106-.027-.187-.08-.242-.05-.056-.121-.084-.215-.084-.1 0-.182.03-.245.092-.06.062-.1.164-.117.305l-.57-.23a.872.872 0 01.178-.41.88.88 0 01.34-.256C3.245.03 3.397 0 3.563 0c.284 0 .502.072.653.216.153.144.23.338.23.583a.835.835 0 01-.053.317.585.585 0 01-.128.208.567.567 0 01-.155.119.573.573 0 01-.132.044V1.5c.045 0 .097.01.155.03a.521.521 0 01.306.291.657.657 0 01.056.292.87.87 0 01-.124.472.83.83 0 01-.333.31c-.14.07-.3.105-.479.105zm3.509-.878c-.073.306-.208.53-.404.67A1.151 1.151 0 015.978 3c-.254 0-.473-.059-.656-.176a1.162 1.162 0 01-.42-.517 2.002 2.002 0 01-.146-.807 2 2 0 01.147-.807A1.13 1.13 0 015.322.18c.183-.12.4-.181.652-.181.26 0 .486.065.68.194.193.13.322.332.385.609l-.57.27C6.434.892 6.376.768 6.295.7a.427.427 0 00-.298-.105.487.487 0 00-.426.229c-.101.153-.151.378-.151.675 0 .297.048.522.143.675.098.153.244.23.438.23.12 0 .222-.039.305-.115.086-.08.144-.2.174-.362l.589.194zM8.215 3c-.267 0-.488-.06-.665-.18a.972.972 0 01-.37-.54l.597-.3c.015.16.058.271.128.336a.41.41 0 00.283.097c.103 0 .185-.03.245-.092a.366.366 0 00.091-.26c0-.112-.029-.193-.087-.243a.364.364 0 00-.245-.075c-.06 0-.122.004-.185.013v-.494l.06.009h.072c.116 0 .2-.028.253-.084.053-.06.08-.15.08-.274 0-.106-.027-.187-.08-.242-.05-.056-.122-.084-.215-.084-.1 0-.183.03-.245.092-.06.062-.1.164-.117.305l-.57-.23a.872.872 0 01.177-.41.88.88 0 01.34-.256C7.9.03 8.052 0 8.218 0c.285 0 .502.072.653.216.154.144.23.338.23.583a.835.835 0 01-.052.317.585.585 0 01-.129.208.567.567 0 01-.154.119.573.573 0 01-.133.044V1.5a.48.48 0 01.155.03.521.521 0 01.306.291.657.657 0 01.056.292.87.87 0 01-.124.472.83.83 0 01-.332.31c-.141.07-.3.105-.48.105zm3.508-.878c-.073.306-.207.53-.404.67a1.152 1.152 0 01-.686.208c-.254 0-.473-.059-.657-.176a1.162 1.162 0 01-.419-.517A2.002 2.002 0 019.41 1.5a2 2 0 01.147-.807c.098-.224.238-.394.419-.512.184-.12.401-.181.653-.181.259 0 .485.065.679.194.194.13.322.332.385.609l-.57.27C11.088.892 11.03.768 10.95.7a.427.427 0 00-.299-.105.488.488 0 00-.426.229c-.1.153-.15.378-.15.675 0 .297.047.522.143.675.098.153.243.23.437.23a.437.437 0 00.306-.115c.085-.08.143-.2.173-.362l.59.194zm1.387.834v-.64h-1.215V1.84l.087-.168c.038-.07.082-.15.132-.238l.812-1.39h.758v1.752h.381v.52h-.38v.64h-.575zm-.694-1.16h.702V.913c0-.059.001-.119.004-.18l.007-.195h-.007a3.984 3.984 0 01-.185.37l-.442.755c-.027.05-.054.094-.079.133zM15.388 0c.198 0 .375.049.528.146.156.097.268.263.336.498l-.528.291a.478.478 0 00-.133-.242.327.327 0 00-.245-.093c-.146 0-.261.076-.347.23-.085.15-.128.358-.128.626v.07l.007.027a.516.516 0 01.14-.225.626.626 0 01.223-.137.681.681 0 01.249-.048.8.8 0 01.411.106.73.73 0 01.283.304c.07.132.106.29.106.472 0 .2-.04.374-.117.52a.83.83 0 01-.329.336.97.97 0 01-.49.119.998.998 0 01-.566-.163 1.092 1.092 0 01-.378-.494 2.211 2.211 0 01-.132-.817c0-.344.05-.629.147-.855.099-.227.23-.395.397-.503A.998.998 0 0115.388 0zm-.046 1.654c-.1 0-.184.036-.252.106a.38.38 0 00-.102.283.4.4 0 00.102.282c.07.07.154.106.252.106.114 0 .2-.034.26-.102a.405.405 0 00.095-.286.405.405 0 00-.094-.287c-.06-.068-.147-.102-.26-.102zm2.701 1.302v-1.91c.002-.083.003-.167.003-.252-.083.091-.176.17-.279.234a.952.952 0 01-.313.132l-.06-.626a.917.917 0 00.279-.093c.103-.05.199-.11.287-.18a.828.828 0 00.192-.217h.517v2.912h-.627zM20.087 3c-.34 0-.598-.126-.774-.38-.174-.252-.26-.626-.26-1.12 0-.494.086-.868.26-1.12.176-.254.434-.38.774-.38s.596.126.77.38c.175.252.264.626.264 1.12 0 .494-.089.868-.265 1.12-.173.254-.43.38-.77.38zm0-.591c.138 0 .237-.07.298-.208.063-.14.094-.375.094-.701 0-.326-.031-.559-.094-.697-.06-.141-.16-.212-.299-.212-.138 0-.238.07-.301.212-.06.138-.09.37-.09.697 0 .326.03.56.09.701.063.139.163.208.302.208zM22.44 3c-.34 0-.598-.126-.774-.38-.174-.252-.26-.626-.26-1.12 0-.494.086-.868.26-1.12.176-.254.434-.38.773-.38.34 0 .597.126.77.38.176.252.264.626.264 1.12 0 .494-.088.868-.264 1.12-.173.254-.43.38-.77.38zm0-.591c.138 0 .237-.07.298-.208.063-.14.094-.375.094-.701 0-.326-.032-.559-.094-.697-.06-.141-.16-.212-.299-.212-.138 0-.238.07-.301.212-.06.138-.09.37-.09.697 0 .326.03.56.09.701.063.139.163.208.301.208zM24.392 0a.63.63 0 01.51.23c.128.15.192.35.192.6s-.064.45-.192.604a.637.637 0 01-.51.225.637.637 0 01-.509-.225c-.128-.153-.192-.355-.192-.605s.064-.45.192-.6a.632.632 0 01.51-.229zm-.154 2.956L25.97.04h.49l-1.732 2.916h-.49zm.154-2.453a.19.19 0 00-.165.088.423.423 0 00-.057.238c0 .103.019.184.056.243.04.056.096.084.166.084a.187.187 0 00.166-.084c.04-.059.06-.14.06-.243a.403.403 0 00-.06-.238.185.185 0 00-.166-.088zm1.906.838c.211 0 .381.077.51.23.128.15.192.35.192.6s-.064.451-.192.604a.637.637 0 01-.51.225.637.637 0 01-.51-.225c-.128-.153-.192-.354-.192-.604s.064-.45.193-.6a.632.632 0 01.51-.23zm0 .503c-.073 0-.13.03-.17.088a.424.424 0 00-.056.239c0 .103.019.183.056.242.04.056.097.084.17.084a.188.188 0 00.166-.084c.04-.059.06-.14.06-.242a.403.403 0 00-.06-.239.185.185 0 00-.166-.088zm36.898-.04v.45h-.474l-.096.702H62.2l.096-.702h-.481l-.093.702h-.43l.093-.702H61v-.45h.448l.081-.608h-.37v-.45h.43l.096-.702h.43l-.097.702h.482l.092-.702h.43l-.093.702h.426v.45h-.489l-.081.608h.41zm-1.319 0h.478l.082-.608h-.478l-.082.608zm2.853 1.152v-.64h-1.192V1.84l.085-.168c.037-.07.08-.15.13-.238l.796-1.39h.744v1.752h.374v.52h-.374v.64h-.563zm-.68-1.16h.688V.913c0-.059.001-.119.004-.18l.007-.195h-.007a3.955 3.955 0 01-.181.37l-.434.755a2.06 2.06 0 01-.078.133zM67.868.63h-1.262v.619h1.007v.586h-1.007v1.12h-.637V.046h1.9V.63zM68.95 3a1.04 1.04 0 01-.555-.146c-.155-.1-.286-.261-.392-.485l.559-.33a.66.66 0 00.13.282c.061.07.153.105.274.105a.354.354 0 00.27-.105c.066-.074.1-.18.1-.318 0-.268-.124-.402-.37-.402a.472.472 0 00-.393.173l-.481-.106.155-1.624h1.54v.587H68.71l-.063.582-.011.07h.004a.459.459 0 01.207-.154.796.796 0 01.296-.053c.16 0 .298.039.411.115a.72.72 0 01.263.313c.062.133.093.284.093.455 0 .238-.045.435-.134.591a.843.843 0 01-.351.34c-.146.073-.304.11-.474.11zm1.248-.044V2.47c.28-.21.504-.399.674-.57.173-.173.3-.335.378-.485a.92.92 0 00.118-.428.442.442 0 00-.085-.278c-.054-.076-.135-.114-.244-.114a.31.31 0 00-.274.154c-.064.1-.097.247-.1.441l-.544-.198c.005-.215.048-.396.13-.543a.81.81 0 01.34-.335A1.02 1.02 0 0171.08 0c.215 0 .39.047.526.141a.821.821 0 01.3.353c.064.141.096.288.096.441 0 .283-.09.54-.27.772a3.43 3.43 0 01-.767.684v.005a4.665 4.665 0 01.493-.018h.573v.578h-1.833zM73.167 3a1.04 1.04 0 01-.555-.146c-.156-.1-.287-.261-.393-.485l.56-.33c.026.117.07.211.129.282.061.07.153.105.274.105a.354.354 0 00.27-.105c.067-.074.1-.18.1-.318 0-.268-.123-.402-.37-.402a.472.472 0 00-.393.173l-.481-.106.155-1.624h1.54v.587h-1.077l-.063.582-.01.07h.003a.459.459 0 01.207-.154.796.796 0 01.296-.053c.16 0 .298.039.412.115a.724.724 0 01.262.313c.062.133.093.284.093.455 0 .238-.044.435-.133.591a.843.843 0 01-.352.34c-.146.073-.304.11-.474.11zm1.248-.044V2.47c.279-.21.503-.399.674-.57.172-.173.298-.335.377-.485a.92.92 0 00.119-.428A.442.442 0 0075.5.71c-.055-.076-.136-.114-.245-.114a.31.31 0 00-.274.154c-.064.1-.097.247-.1.441l-.544-.198c.005-.215.048-.396.13-.543a.81.81 0 01.34-.335A1.02 1.02 0 0175.296 0c.215 0 .39.047.526.141a.821.821 0 01.3.353c.064.141.096.288.096.441 0 .283-.09.54-.27.772a3.43 3.43 0 01-.767.684v.005a4.64 4.64 0 01.493-.018h.574v.578h-1.833zM78.369 3a1.04 1.04 0 01-.556-.146c-.155-.1-.286-.261-.392-.485l.559-.33a.66.66 0 00.13.282c.061.07.153.105.273.105a.354.354 0 00.27-.105c.067-.074.1-.18.1-.318 0-.268-.123-.402-.37-.402a.472.472 0 00-.392.173l-.481-.106.155-1.624h1.54v.587h-1.077l-.063.582-.011.07h.004a.459.459 0 01.207-.154.796.796 0 01.296-.053c.16 0 .298.039.411.115a.72.72 0 01.263.313c.062.133.093.284.093.455 0 .238-.045.435-.134.591a.843.843 0 01-.351.34c-.146.073-.304.11-.474.11zM80.553.009c.277 0 .498.072.663.216.165.141.248.335.248.582a.818.818 0 01-.096.406.597.597 0 01-.285.252v.004a.748.748 0 01.344.26.716.716 0 01.122.433.763.763 0 01-.266.609c-.176.153-.419.229-.73.229-.308 0-.552-.076-.73-.23a.768.768 0 01-.262-.608c0-.177.04-.32.122-.433a.748.748 0 01.344-.26v-.004a.618.618 0 01-.288-.252.818.818 0 01-.097-.406c0-.247.083-.44.249-.582.167-.144.388-.216.662-.216zm0 .551a.321.321 0 00-.237.089.341.341 0 00-.085.247.35.35 0 00.085.247c.06.058.138.088.237.088.099 0 .178-.03.237-.088a.342.342 0 00.09-.247.332.332 0 00-.09-.247.314.314 0 00-.237-.089zm0 1.889a.382.382 0 00.278-.098.352.352 0 00.1-.264.338.338 0 00-.104-.265.376.376 0 00-.274-.097.385.385 0 00-.274.097.346.346 0 00-.1.265c0 .112.034.2.1.264a.376.376 0 00.274.098zM82.441 0c.208 0 .374.076.5.23.126.15.19.35.19.6s-.064.45-.19.604a.62.62 0 01-.5.225.62.62 0 01-.5-.225c-.125-.153-.188-.355-.188-.605s.063-.45.189-.6a.615.615 0 01.5-.229zm-.151 2.956L83.99.04h.48l-1.699 2.916h-.481zm.15-2.453a.189.189 0 00-.163.088.43.43 0 00-.055.238c0 .103.019.184.055.243a.19.19 0 00.163.084.183.183 0 00.163-.084.43.43 0 00.06-.243.409.409 0 00-.06-.238.18.18 0 00-.163-.088zm1.87.838c.208 0 .374.077.5.23.126.15.189.35.189.6s-.063.451-.189.604a.62.62 0 01-.5.225.62.62 0 01-.5-.225c-.126-.153-.188-.354-.188-.604s.063-.45.188-.6a.615.615 0 01.5-.23zm0 .503a.19.19 0 00-.166.088.43.43 0 00-.056.239c0 .103.019.183.056.242.04.056.095.084.166.084a.183.183 0 00.163-.084.43.43 0 00.06-.242.409.409 0 00-.06-.239.18.18 0 00-.163-.088zM2.247 32.804v.45h-.485l-.099.702h-.435l.098-.702H.834l-.095.702h-.44l.095-.702H0v-.45h.458l.084-.608h-.38v-.45h.44l.099-.702h.44l-.1.702h.493l.095-.702h.44l-.095.702h.436v.45h-.5l-.084.608h.42zm-1.35 0h.49l.083-.608H.981l-.083.608zM3.654 34c-.34 0-.6-.127-.777-.38-.174-.252-.26-.626-.26-1.12-.001-.494.086-.868.26-1.12.177-.253.436-.38.777-.38s.599.127.773.38c.177.252.265.626.265 1.12 0 .494-.088.868-.265 1.12-.174.254-.432.38-.773.38zm0-.591c.14 0 .239-.07.3-.207.063-.142.094-.375.094-.702 0-.327-.031-.559-.095-.697-.06-.141-.16-.212-.299-.212-.139 0-.24.07-.303.212-.06.138-.09.37-.09.697 0 .327.03.56.09.702.063.138.164.207.303.207zM6.017 34c-.341 0-.6-.127-.777-.38-.174-.252-.261-.626-.261-1.12 0-.494.087-.868.261-1.12.177-.253.436-.38.777-.38.34 0 .598.127.773.38.176.252.265.626.265 1.12 0 .494-.089.868-.265 1.12-.175.254-.432.38-.773.38zm0-.591c.139 0 .238-.07.299-.207.063-.142.095-.375.095-.702 0-.327-.032-.559-.095-.697-.06-.141-.16-.212-.3-.212-.138 0-.24.07-.302.212-.061.138-.091.37-.091.697 0 .327.03.56.09.702.064.138.165.207.304.207zm1.419.547v-2.912h1.216c.308 0 .535.068.682.203.146.135.22.33.22.582a.734.734 0 01-.125.428.555.555 0 01-.383.225v.005c.192.03.335.107.428.234a.711.711 0 01.144.45c0 .25-.077.444-.231.582-.152.135-.378.203-.678.203H7.436zm.629-1.72h.473c.233 0 .349-.107.349-.318 0-.212-.116-.318-.349-.318h-.473v.635zm0 1.186h.534c.235 0 .352-.109.352-.326 0-.212-.117-.318-.352-.318h-.534v.644zm2.692.578c-.217 0-.407-.048-.568-.146-.16-.1-.293-.261-.402-.485l.572-.33a.659.659 0 00.133.282c.063.07.156.105.28.105a.367.367 0 00.277-.105c.068-.074.102-.18.102-.318 0-.268-.126-.401-.379-.401a.488.488 0 00-.402.172l-.492-.106.16-1.624h1.575v.587h-1.102l-.065.582-.011.07h.004a.468.468 0 01.212-.154.83.83 0 01.303-.052.72.72 0 01.69.428c.063.132.094.283.094.454 0 .238-.045.435-.136.591a.855.855 0 01-.36.34c-.15.073-.31.11-.485.11zm2.387-2.956c.391 0 .69.127.898.38.21.253.314.611.314 1.076 0 .465-.104.824-.314 1.077-.207.252-.507.379-.898.379h-1.06v-2.912h1.06zm-.065 2.338c.213 0 .367-.073.463-.22.098-.15.148-.37.148-.662 0-.291-.05-.51-.148-.657-.096-.15-.25-.225-.463-.225h-.344v1.764h.345zm2.709-2.338c.391 0 .69.127.898.38.21.253.314.611.314 1.076 0 .465-.105.824-.314 1.077-.208.252-.507.379-.898.379h-1.061v-2.912h1.06zm-.065 2.338c.212 0 .366-.073.462-.22.099-.15.148-.37.148-.662 0-.291-.05-.51-.148-.657-.096-.15-.25-.225-.462-.225h-.345v1.764h.345zm47.444-.578v.45h-.468l-.095.702h-.42l.095-.702h-.475l-.092.702h-.423l.091-.702H61v-.45h.442l.08-.608h-.365v-.45h.424l.095-.702h.424l-.095.702h.475l.091-.702h.424l-.091.702h.42v.45h-.482l-.08.608h.405zm-1.301 0h.471l.08-.608h-.47l-.081.608zm3.623-1.174h-1.246v.619h.994v.586h-.994v1.12h-.629v-2.91h1.875v.586zm.143-.586h1.984v.538c-.2.236-.358.48-.475.733-.114.25-.196.512-.244.785-.047.273-.07.559-.07.856h-.62c0-.438.062-.847.19-1.227a3.47 3.47 0 01.606-1.09h-1.37v-.595zM68.733 31c.33 0 .582.128.752.384.17.253.256.622.256 1.107 0 .35-.044.637-.132.86-.085.224-.203.389-.354.495a.906.906 0 01-.522.154.993.993 0 01-.549-.15c-.153-.103-.268-.265-.343-.485l.563-.27c.02.104.056.184.11.243a.303.303 0 00.23.088c.153 0 .264-.07.332-.211.07-.144.106-.349.106-.614v-.07h-.011a.481.481 0 01-.23.291.704.704 0 01-.351.093.746.746 0 01-.406-.11.774.774 0 01-.274-.318 1.089 1.089 0 01-.098-.481c0-.209.037-.388.113-.538a.83.83 0 01.322-.345.935.935 0 01.486-.123zm0 .582a.315.315 0 00-.253.106.446.446 0 00-.091.3c0 .118.032.21.095.278a.332.332 0 00.249.097.321.321 0 00.244-.106.398.398 0 00.099-.282.404.404 0 00-.099-.287.321.321 0 00-.245-.106zm2.441 2.374v-.64h-1.177v-.476l.085-.168c.036-.07.079-.15.127-.238l.786-1.39h.734v1.752h.37v.52h-.37v.64h-.555zm-.672-1.16h.68v-.883c0-.059 0-.119.003-.18l.007-.195h-.007a3.987 3.987 0 01-.179.37l-.427.755c-.027.05-.053.094-.077.133zm2.236 1.16v-1.91c.003-.083.004-.167.004-.252-.08.091-.17.17-.27.234a.904.904 0 01-.304.132l-.058-.626a.866.866 0 00.27-.093c.1-.05.193-.11.278-.18a.82.82 0 00.186-.217h.5v2.912h-.606zm2.092-2.912c.378 0 .667.127.867.38.202.253.303.611.303 1.076 0 .465-.101.824-.303 1.077-.2.252-.489.379-.866.379h-1.023v-2.912h1.023zm-.061 2.338c.204 0 .353-.073.445-.22.095-.15.143-.37.143-.662 0-.291-.048-.51-.143-.657-.092-.15-.24-.225-.445-.225h-.333v1.764h.333z" fill="#4F5252"/>
  <path d="M0 6h57v10H0V6z" fill="#3C3C46"/>
  <path d="M61 6h57v10H61V6z" fill="#4F5252" fill-opacity=".58"/>
  <path d="M0 37h57v11H0V37z" fill="#00B5DD"/>
  <path d="M60 37h58v11H60V37z" fill="#F7941D"/>
  <path d="M37.919 82.892c.195 0 .357.049.486.146a.919.919 0 01.3.393l-.29.146a.597.597 0 00-.185-.296.47.47 0 00-.319-.105.54.54 0 00-.448.206c-.106.136-.16.323-.16.564 0 .24.054.43.16.567a.544.544 0 00.448.203c.15 0 .268-.036.357-.11a.524.524 0 00.175-.307l.28.105a.902.902 0 01-.3.438.792.792 0 01-.504.158.856.856 0 01-.8-.487 1.272 1.272 0 01-.119-.567c0-.219.04-.407.118-.564a.852.852 0 01.8-.49zm2.048 0a.853.853 0 01.8.49c.08.157.118.345.118.564 0 .219-.039.408-.117.567a.857.857 0 01-.801.487.857.857 0 01-.801-.487 1.272 1.272 0 01-.118-.567c0-.219.04-.407.118-.564a.853.853 0 01.8-.49zm0 .28a.543.543 0 00-.452.206c-.109.138-.163.327-.163.568 0 .24.054.43.163.567.109.138.26.207.452.207a.543.543 0 00.452-.207c.108-.137.163-.327.163-.567 0-.24-.055-.43-.163-.568a.543.543 0 00-.452-.206zM41.67 82v2.445c0 .102.017.174.053.215.035.037.092.056.17.056a.548.548 0 00.126-.012 1.18 1.18 0 00.133-.044l-.05.283a.672.672 0 01-.28.057c-.304 0-.456-.181-.456-.543V82h.304zm1.581.892a.853.853 0 01.801.49c.079.157.118.345.118.564 0 .219-.04.408-.118.567a.857.857 0 01-.8.487.856.856 0 01-.8-.487 1.272 1.272 0 01-.12-.567c0-.219.04-.407.118-.564a.852.852 0 01.801-.49zm0 .28a.543.543 0 00-.451.206c-.11.138-.163.327-.163.568 0 .24.054.43.163.567.108.138.26.207.451.207a.544.544 0 00.452-.207c.109-.137.163-.327.163-.567 0-.24-.054-.43-.163-.568a.544.544 0 00-.452-.206zm1.415 1.788v-2.028h.247l.041.333c.107-.249.31-.373.608-.373.033 0 .068.003.106.008.04.005.075.016.102.032l-.053.296a.456.456 0 00-.09-.024.91.91 0 00-.141-.008.463.463 0 00-.24.073.566.566 0 00-.197.223.773.773 0 00-.08.373v1.095h-.303zm2.437-1.229v.337H45.85v-.337h1.253zm1.403-.839c.195 0 .357.049.486.146a.917.917 0 01.3.393l-.288.146a.597.597 0 00-.186-.296.47.47 0 00-.32-.105.54.54 0 00-.447.206c-.106.136-.16.323-.16.564 0 .24.054.43.16.567a.544.544 0 00.448.203c.15 0 .268-.036.357-.11a.523.523 0 00.174-.307l.281.105a.902.902 0 01-.3.438.792.792 0 01-.505.158.857.857 0 01-.801-.487 1.273 1.273 0 01-.117-.567c0-.219.039-.407.117-.564a.853.853 0 01.801-.49zm2.371.758c0-.151-.038-.268-.114-.349a.413.413 0 00-.322-.125.579.579 0 00-.334.093.52.52 0 00-.201.292l-.247-.162a.696.696 0 01.28-.365.872.872 0 01.51-.142.88.88 0 01.371.077.568.568 0 01.262.227c.066.1.099.23.099.39v.98c0 .097.048.146.144.146a.492.492 0 00.14-.02l-.015.255a.419.419 0 01-.197.04.408.408 0 01-.243-.072.35.35 0 01-.129-.223.603.603 0 01-.27.235.854.854 0 01-.337.073.794.794 0 01-.312-.06.535.535 0 01-.231-.183.544.544 0 01-.084-.308c0-.152.047-.276.14-.373a.746.746 0 01.4-.203l.69-.146v-.077zm-.918.782c0 .084.03.153.09.207a.412.412 0 00.267.077c.098 0 .19-.017.273-.052a.504.504 0 00.209-.167.49.49 0 00.08-.287v-.215l-.551.121a.678.678 0 00-.277.114.245.245 0 00-.091.202zm1.884.528v-2.028h.247l.041.333c.107-.249.31-.373.608-.373.033 0 .068.003.106.008.04.005.075.016.103.032l-.053.296a.455.455 0 00-.092-.024.91.91 0 00-.14-.008.463.463 0 00-.24.073.566.566 0 00-.197.223.774.774 0 00-.08.373v1.095h-.303zm2.155.04a.79.79 0 01-.433-.126.885.885 0 01-.315-.36 1.273 1.273 0 01-.118-.568c0-.224.042-.415.125-.572a.887.887 0 01.33-.356.827.827 0 01.44-.126c.138 0 .259.034.365.101a.587.587 0 01.236.268V82h.303v2.96h-.265l-.02-.382a.62.62 0 01-.258.317.754.754 0 01-.39.105zm.03-.284c.18 0 .324-.071.433-.215.111-.143.167-.338.167-.583 0-.233-.055-.414-.164-.544a.52.52 0 00-.42-.198.529.529 0 00-.449.21c-.106.141-.16.328-.16.56 0 .232.053.419.156.56.104.14.25.21.437.21zm2.217.284a1.07 1.07 0 01-.513-.126.87.87 0 01-.357-.356l.258-.2a.668.668 0 00.243.293c.11.07.24.105.391.105.134 0 .24-.027.315-.08a.262.262 0 00.061-.374c-.033-.049-.097-.084-.193-.105l-.456-.102c-.185-.04-.318-.108-.398-.202a.534.534 0 01-.118-.353.56.56 0 01.087-.304.637.637 0 01.254-.219.851.851 0 01.391-.085c.188 0 .346.04.475.118a.714.714 0 01.288.332l-.254.178a.465.465 0 00-.209-.26.583.583 0 00-.3-.084.505.505 0 00-.318.089.272.272 0 00-.057.39c.038.048.108.083.212.105l.475.105c.177.038.3.1.372.186a.49.49 0 01.106.317c0 .192-.07.346-.209.462-.139.113-.321.17-.546.17zm38.639-2.108c-.552 0-.884.397-.884 1.054S94.332 85 94.884 85c.387 0 .65-.223.774-.596l-.27-.105c-.055.267-.227.417-.512.417-.365 0-.584-.288-.584-.77 0-.483.22-.77.584-.77.252 0 .41.142.486.401l.278-.146c-.135-.332-.38-.54-.756-.54zm1.988 0c-.551 0-.884.397-.884 1.054S96.321 85 96.872 85c.552 0 .884-.397.884-1.054s-.332-1.054-.884-1.054zm0 .28c.369 0 .592.291.592.774 0 .482-.223.774-.592.774s-.591-.292-.591-.774c0-.483.222-.774.591-.774zM98.528 82h-.292v2.457c0 .369.142.543.438.543a.64.64 0 00.27-.057l.048-.312a.595.595 0 01-.267.057c-.15 0-.197-.065-.197-.272V82zm1.536.892c-.551 0-.884.397-.884 1.054s.333 1.054.884 1.054c.552 0 .884-.397.884-1.054s-.332-1.054-.884-1.054zm0 .28c.369 0 .592.291.592.774 0 .482-.223.774-.592.774s-.591-.292-.591-.774c0-.483.222-.774.591-.774zm2.24-.28c-.285 0-.482.126-.584.373l-.04-.333h-.238v2.028h.292v-1.095c0-.454.263-.67.483-.67.094 0 .175.021.23.054l.058-.317a.429.429 0 00-.201-.04zm1.483.839h-1.205v.337h1.205v-.337zm1.365-.839c-.552 0-.884.397-.884 1.054S104.6 85 105.152 85c.387 0 .65-.223.774-.596l-.27-.105c-.055.267-.227.417-.512.417-.365 0-.584-.288-.584-.77 0-.483.219-.77.584-.77.252 0 .409.142.486.401l.278-.146c-.135-.332-.38-.54-.756-.54zm2.715 1.832c-.103 0-.139-.048-.139-.146v-.997c0-.47-.303-.69-.719-.69-.355 0-.643.195-.738.495l.215.175c.099-.256.282-.385.523-.385.273 0 .427.178.427.446v.113l-.486.09c-.471.088-.712.328-.712.632 0 .365.278.543.621.543.234 0 .471-.11.588-.3.033.227.149.3.328.3.092 0 .168-.02.22-.04l.018-.256a.586.586 0 01-.146.02zm-.994-.008c-.208 0-.332-.089-.332-.26 0-.19.164-.307.486-.372l.409-.085v.28c0 .267-.27.437-.563.437zm2.354-1.824c-.285 0-.482.126-.585.373l-.04-.333h-.237v2.028h.292v-1.095c0-.454.263-.67.482-.67.095 0 .175.021.23.054l.059-.317a.429.429 0 00-.201-.04zm1.828-.892v1.249a.676.676 0 00-.606-.357c-.508 0-.833.393-.833 1.054 0 .66.325 1.054.833 1.054a.674.674 0 00.624-.393l.018.353h.256V82h-.292zm-.574 2.716c-.357 0-.573-.3-.573-.77 0-.47.216-.77.573-.77.347 0 .574.287.574.746v.048c0 .458-.227.746-.574.746zm2.093.284c.467 0 .763-.247.763-.6 0-.332-.183-.503-.694-.596-.373-.069-.493-.158-.493-.332 0-.15.183-.296.427-.296.23 0 .395.097.475.364l.248-.162c-.102-.332-.332-.486-.723-.486-.445 0-.719.28-.719.608 0 .34.19.499.708.604.365.073.479.162.479.312 0 .166-.143.3-.442.3-.263 0-.49-.11-.577-.356l-.238.182c.139.312.45.458.786.458zM115 83.731h-1.205v.337H115v-.337zm.379 1.229H117v-.305h-.844c-.073 0-.281.008-.361.013v-.005c.862-.636 1.154-1.078 1.154-1.58 0-.495-.314-.84-.807-.84-.49 0-.778.329-.84.795l.255.17c.033-.401.242-.66.574-.66.314 0 .511.218.511.534 0 .475-.299.828-1.263 1.614v.264zM2.308 64.21v.308h-.499l-.1.482H1.26l.101-.482H.856L.76 65H.307l.098-.482H0v-.309h.47l.086-.418H.167v-.31H.62L.72 63h.452l-.1.482h.505L1.673 63h.452l-.098.482h.448v.309H1.96l-.085.418h.432zm-1.386 0h.502l.086-.42h-.502l-.086.42zm3.858-.807H3.453v.424h1.059v.403H3.453V65h-.669v-2H4.78v.403zM5.548 65v-1.312a3.78 3.78 0 00.004-.173 1.402 1.402 0 01-.61.252l-.063-.43a1.797 1.797 0 00.584-.188c.09-.051.157-.1.198-.149h.533v2h-.646zm3.135-1.597H7.356v.424h1.059v.403H7.356V65h-.669v-2h1.996v.403zM9.451 65v-1.312a3.78 3.78 0 00.004-.173 1.403 1.403 0 01-.61.252l-.063-.43a1.797 1.797 0 00.584-.188c.09-.051.156-.1.198-.149h.533v2h-.646zm3.135-1.597H11.26v.424h1.059v.403H11.26V65h-.669v-2h1.996v.403zM13.354 65v-1.312c.003-.057.004-.114.004-.173a1.403 1.403 0 01-.611.252l-.062-.43a1.3 1.3 0 00.288-.064c.106-.035.205-.076.295-.125.091-.05.157-.1.199-.148H14v2h-.646zm49.769-.797v.3h-.458l-.093.468h-.412l.093-.468h-.465l-.09.468h-.415l.09-.468H61v-.3h.433l.079-.406h-.358v-.3h.415l.093-.468h.416l-.093.468h.465l.09-.468h.415l-.09.468h.412v.3h-.473l-.078.406h.397zm-1.274 0h.461l.08-.406h-.463l-.078.406zm3.549-.783h-1.22v.412h.973v.392h-.974v.747h-.615v-1.942h1.836v.392zm1.143-.414c.268 0 .481.048.641.144.16.094.24.224.24.388a.416.416 0 01-.093.27.562.562 0 01-.275.169v.002c.143.04.254.097.332.174a.38.38 0 01.119.288c0 .169-.086.304-.258.406-.17.102-.405.153-.706.153-.298 0-.533-.051-.705-.153-.17-.102-.254-.237-.254-.406a.38.38 0 01.118-.288.756.756 0 01.333-.174v-.002a.586.586 0 01-.28-.168.416.416 0 01-.092-.27c0-.166.08-.295.24-.389.162-.096.376-.144.64-.144zm0 .367a.398.398 0 00-.229.06.19.19 0 00-.082.164c0 .069.027.124.082.165a.404.404 0 00.23.059c.095 0 .171-.02.229-.06a.193.193 0 00.086-.164.188.188 0 00-.086-.165.388.388 0 00-.23-.059zm0 1.26a.478.478 0 00.269-.065.202.202 0 00.097-.177.196.196 0 00-.1-.176.472.472 0 00-.266-.065.482.482 0 00-.264.065.197.197 0 00-.097.176c0 .075.032.133.097.177a.47.47 0 00.264.064zm3.151-1.213h-1.22v.412h.973v.392h-.974v.747h-.616v-1.942h1.837v.392zm.238 1.55v-.323c.27-.14.486-.266.651-.38a1.6 1.6 0 00.365-.323.477.477 0 00.115-.285.238.238 0 00-.083-.185c-.052-.051-.13-.077-.236-.077-.112 0-.2.034-.265.103-.062.067-.094.165-.097.294l-.526-.132a.592.592 0 01.126-.362.724.724 0 01.329-.223c.138-.051.296-.077.472-.077.208 0 .378.031.509.094.131.06.228.14.29.235a.526.526 0 01.093.294c0 .189-.087.36-.261.515a3.212 3.212 0 01-.742.456v.003a12.43 12.43 0 01.476-.012h.556v.386h-1.773zm2.107 0v-1.94h1.84v.39h-1.224v.395h.974v.367h-.974v.397h1.27v.392h-1.886zM75.012 63c.325 0 .57.085.737.256.168.169.251.415.251.738 0 .234-.043.425-.129.574a.773.773 0 01-.347.33 1.205 1.205 0 01-.512.102 1.33 1.33 0 01-.537-.1.684.684 0 01-.337-.324l.552-.179a.293.293 0 00.107.162c.055.039.13.059.226.059.15 0 .259-.047.325-.141.07-.097.104-.233.104-.41v-.046h-.01a.38.38 0 01-.226.194.951.951 0 01-.344.061 1 1 0 01-.397-.073.64.64 0 01-.269-.212.537.537 0 01-.096-.32c0-.14.037-.26.11-.36a.718.718 0 01.316-.229c.136-.054.294-.082.476-.082zm0 .388a.39.39 0 00-.247.07.24.24 0 00-.09.2c0 .08.031.141.093.186a.417.417 0 00.244.065.396.396 0 00.24-.07.222.222 0 00.096-.189.224.224 0 00-.096-.191.396.396 0 00-.24-.07z" fill="#4F5252"/>
  <path d="M0 69h57v10H0V69z" fill="#446B8B"/>
  <path d="M60 69h58v10H60V69z" fill="#fff"/>
</svg>
