<svg xmlns="http://www.w3.org/2000/svg" fill="none" viewBox="0 0 24 24">
  <g clip-path="url(#_f9dyqGVOrLa)">
    <path d="M10.282 13.59a1.119 1.119 0 01-1.06 1.247c-.751.041-1.509 0-2.3 0v-2.33c.827 0 1.567-.029 2.3 0a1.01 1.01 0 011.054 1.083h.006zm5.551-2.616a1.27 1.27 0 00-1.264 1.334h2.8a1.351 1.351 0 00-1.532-1.334h-.004zm-6.652 0a.88.88 0 00.915-.932.852.852 0 00-.886-.942c-.751-.052-1.5 0-2.278 0v1.91c.775 0 1.515.058 2.249-.012v-.024zM24 12A12 12 0 11.001 12 12 12 0 0124 12zm-9.821-3.262h3.5v-.775h-3.5v.775zM12.117 13.6a2.02 2.02 0 00-1.217-1.928 5.58 5.58 0 00.757-.973 2.085 2.085 0 00-1.59-2.994c-1.7-.163-3.419-.041-5.167-.041v8.7h4.578a2.616 2.616 0 001.748-.658 2.582 2.582 0 00.891-2.085V13.6zm2.394-.2h4.584a5.927 5.927 0 00-.058-1.043 2.7 2.7 0 00-1.94-2.563 3.186 3.186 0 00-3.524.827 3.872 3.872 0 00-.751 2.779 2.82 2.82 0 002.126 2.8 3.285 3.285 0 003.7-1.136 5.67 5.67 0 00.362-.798h-1.325a.938.938 0 00-.542.25 1.654 1.654 0 01-1.748.361 1.4 1.4 0 01-.885-1.477h.001z" fill="#1C1C1C"/>
  </g>
  <defs>
    <clipPath id="_f9dyqGVOrLa">
      <path fill="#fff" d="M0 0h24v24H0z"/>
    </clipPath>
  </defs>
</svg>
